<svg width="18" height="17" viewBox="0 0 18 17" fill="none" xmlns="http://www.w3.org/2000/svg">
<g id="Insta">
<path id="Vector" d="M12.1878 1.82319C13.1312 1.8259 14.0351 2.18798 14.7022 2.83033C15.3692 3.47269 15.7452 4.34314 15.748 5.25157V12.1076C15.7452 13.016 15.3692 13.8865 14.7022 14.5288C14.0351 15.1712 13.1312 15.5333 12.1878 15.536H5.06809C4.12472 15.5333 3.2208 15.1712 2.55373 14.5288C1.88667 13.8865 1.51067 13.016 1.50785 12.1076V5.25157C1.51067 4.34314 1.88667 3.47269 2.55373 2.83033C3.2208 2.18798 4.12472 1.8259 5.06809 1.82319H12.1878ZM12.1878 0.452057H5.06809C2.32678 0.452057 0.0839844 2.61178 0.0839844 5.25157V12.1076C0.0839844 14.7474 2.32678 16.9071 5.06809 16.9071H12.1878C14.9291 16.9071 17.1719 14.7474 17.1719 12.1076V5.25157C17.1719 2.61178 14.9291 0.452057 12.1878 0.452057Z" fill="white"/>
<path id="Vector_2" d="M13.2553 5.2521C13.0441 5.2521 12.8376 5.19179 12.662 5.07878C12.4863 4.96577 12.3494 4.80515 12.2686 4.61723C12.1878 4.42931 12.1666 4.22252 12.2078 4.02302C12.249 3.82353 12.3508 3.64027 12.5001 3.49644C12.6495 3.35261 12.8398 3.25467 13.0469 3.21498C13.2541 3.1753 13.4689 3.19567 13.664 3.27351C13.8592 3.35135 14.026 3.48316 14.1433 3.65229C14.2607 3.82142 14.3233 4.02026 14.3233 4.22366C14.3236 4.3588 14.2962 4.49267 14.2426 4.61757C14.1891 4.74248 14.1104 4.85597 14.0112 4.95153C13.9119 5.04708 13.7941 5.12283 13.6644 5.17441C13.5347 5.22599 13.3956 5.25239 13.2553 5.2521ZM8.62745 5.93748C9.19076 5.93748 9.74141 6.09834 10.2098 6.3997C10.6782 6.70107 11.0432 7.12941 11.2588 7.63056C11.4743 8.13171 11.5307 8.68316 11.4208 9.21517C11.3109 9.74719 11.0397 10.2359 10.6414 10.6194C10.2431 11.003 9.73557 11.2642 9.18309 11.37C8.63061 11.4759 8.05795 11.4216 7.53753 11.214C7.0171 11.0064 6.57229 10.6549 6.25933 10.2038C5.94638 9.75282 5.77934 9.22256 5.77934 8.68011C5.78015 7.95296 6.08047 7.25582 6.61442 6.74164C7.14837 6.22747 7.87233 5.93826 8.62745 5.93748ZM8.62745 4.56635C7.78253 4.56635 6.95659 4.80762 6.25407 5.25965C5.55154 5.71167 5.00399 6.35415 4.68066 7.10585C4.35732 7.85754 4.27272 8.68468 4.43756 9.48267C4.60239 10.2807 5.00926 11.0137 5.60671 11.589C6.20415 12.1643 6.96535 12.5561 7.79403 12.7148C8.62271 12.8736 9.48167 12.7921 10.2623 12.4807C11.0429 12.1694 11.7101 11.6421 12.1795 10.9656C12.6489 10.2891 12.8994 9.49374 12.8994 8.68011C12.8994 7.58908 12.4494 6.54273 11.6482 5.77125C10.847 4.99977 9.76045 4.56635 8.62745 4.56635Z" fill="white"/>
</g>
</svg>
