<svg width="19" height="15" viewBox="0 0 19 15" fill="none" xmlns="http://www.w3.org/2000/svg">
<g id="Twiter">
<path id="Vector" d="M18.5683 2.09167C17.8815 2.39008 17.1548 2.58668 16.4113 2.67525C17.1927 2.21769 17.7804 1.49076 18.064 0.630804C17.3252 1.06281 16.5183 1.36592 15.6778 1.52716C15.3239 1.15623 14.8982 0.86115 14.4267 0.659848C13.9552 0.458547 13.4477 0.35523 12.935 0.356177C10.8592 0.356177 9.17944 2.01157 9.17944 4.0522C9.17796 4.33605 9.21049 4.61905 9.27632 4.89516C7.78787 4.82538 6.33038 4.44568 4.99708 3.78034C3.66379 3.11501 2.48405 2.1787 1.53335 1.0313C1.19982 1.59357 1.02343 2.2351 1.02262 2.88885C1.02262 4.17045 1.69126 5.30329 2.7009 5.96697C2.10272 5.95277 1.51679 5.79445 0.992868 5.50544V5.55121C0.992868 7.34392 2.28972 8.8353 4.00614 9.17477C3.68337 9.26081 3.35076 9.30441 3.01672 9.30445C2.77969 9.30487 2.5432 9.28187 2.3107 9.2358C2.78786 10.7043 4.17664 11.7723 5.82173 11.8028C4.48498 12.833 2.84379 13.3898 1.15612 13.3857C0.856553 13.3853 0.557266 13.3674 0.259766 13.3323C1.97664 14.4286 3.97236 15.0085 6.0094 15.003C12.927 15.003 16.7061 9.3693 16.7061 4.48322C16.7061 4.32302 16.7019 4.16282 16.6943 4.00643C17.4278 3.48466 18.0624 2.83626 18.5683 2.09167Z" fill="white"/>
</g>
</svg>
