<?xml version="1.0" encoding="iso-8859-1"?>
<!-- Generator: Adobe Illustrator 26.0.1, SVG Export Plug-In . SVG Version: 6.00 Build 0)  -->
<svg version="1.1" id="Layer_1" xmlns="http://www.w3.org/2000/svg" xmlns:xlink="http://www.w3.org/1999/xlink" x="0px" y="0px"
	 viewBox="0 0 23.799 22.745" style="enable-background:new 0 0 23.799 22.745;" xml:space="preserve">
<g>
	<path id="Star_7" style="fill:none;stroke:#FFA722;stroke-width:2;" d="M10.241,8.337l1.658-5.101l1.657,5.101
		c0.254,0.78,0.981,1.309,1.801,1.309h5.364l-4.339,3.153c-0.664,0.482-0.942,1.337-0.688,2.117l1.657,5.101l-4.339-3.153
		c-0.664-0.482-1.563-0.482-2.226,0l-4.34,3.153l1.658-5.101c0.253-0.78-0.024-1.635-0.688-2.117L3.077,9.646H8.44
		C9.261,9.646,9.988,9.117,10.241,8.337z"/>
	<g id="Mask_Group">
		<defs>
			<filter id="Adobe_OpacityMaskFilter" filterUnits="userSpaceOnUse" x="1.824" y="0.654" width="9.82" height="22.091">
				<feColorMatrix  type="matrix" values="1 0 0 0 0  0 1 0 0 0  0 0 1 0 0  0 0 0 1 0"/>
			</filter>
		</defs>
		
			<mask maskUnits="userSpaceOnUse" x="1.824" y="0.654" width="9.82" height="22.091" id="mask0_1_2748_00000121983949169014845530000010392115945694413469_">
			
				<path id="Star_8_00000152237277767445429390000005835959542376828591_" style="fill:#FFA722;filter:url(#Adobe_OpacityMaskFilter);" d="
				M10.939,3.037c0.299-0.901,1.603-0.901,1.902,0l1.635,4.923c0.134,0.403,0.518,0.676,0.952,0.676h5.292
				c0.969,0,1.372,1.212,0.588,1.769l-4.282,3.043c-0.35,0.249-0.497,0.69-0.363,1.094l1.635,4.923
				c0.3,0.901-0.755,1.65-1.538,1.093l-4.282-3.043c-0.351-0.249-0.825-0.249-1.176,0L7.02,20.558
				c-0.784,0.557-1.838-0.192-1.539-1.093l1.636-4.923c0.134-0.403-0.013-0.844-0.364-1.094l-4.281-3.043
				C1.688,9.848,2.091,8.636,3.059,8.636h5.293c0.433,0,0.817-0.273,0.951-0.676L10.939,3.037z"/>
		</mask>
		<g style="mask:url(#mask0_1_2748_00000121983949169014845530000010392115945694413469_);">
			<path id="Rectangle_40" style="fill:#FFA722;" d="M2.824,0.654h7.82c0.552,0,1,0.438,1,0.978v20.135c0,0.54-0.448,0.978-1,0.978
				h-7.82c-0.552,0-1-0.438-1-0.978V1.632C1.824,1.092,2.272,0.654,2.824,0.654z"/>
		</g>
	</g>
</g>
</svg>
