<?xml version="1.0" encoding="iso-8859-1"?>
<!-- Generator: Adobe Illustrator 26.0.1, SVG Export Plug-In . SVG Version: 6.00 Build 0)  -->
<svg version="1.1" id="Layer_1" xmlns="http://www.w3.org/2000/svg" xmlns:xlink="http://www.w3.org/1999/xlink" x="0px" y="0px"
	 viewBox="0 0 20.089 19.194" style="enable-background:new 0 0 20.089 19.194;" xml:space="preserve">
<g>
	<path id="Star_6" style="fill:#FFA722;" d="M9.195,0.618c0.268-0.823,1.432-0.823,1.7,0l1.759,5.412
		c0.12,0.368,0.463,0.618,0.85,0.618h5.691c0.866,0,1.226,1.108,0.525,1.617l-4.604,3.345c-0.313,0.228-0.444,0.631-0.325,0.999
		l1.759,5.412c0.268,0.823-0.675,1.508-1.375,0.999l-4.604-3.345c-0.313-0.228-0.737-0.228-1.051,0L4.915,19.02
		c-0.7,0.509-1.643-0.176-1.375-0.999l1.759-5.412c0.12-0.368-0.011-0.772-0.325-0.999L0.37,8.264
		c-0.7-0.509-0.34-1.617,0.525-1.617h5.691c0.387,0,0.73-0.249,0.85-0.618L9.195,0.618z"/>
</g>
</svg>
